<svg xmlns="http://www.w3.org/2000/svg" width="31" height="30" viewBox="0 0 31 30">
    <g fill="#FFF" fill-rule="evenodd">
        <path fill-rule="nonzero" d="M2.548 2.571V27.43h7.287v-8.824c0-.422.54-.59.775-.243l4.882 7.193 4.845-7.191c.235-.35.776-.181.776.24v8.825H28.4V2.57h-6.073l-6.482 9.681a.422.422 0 0 1-.703.001l-6.52-9.682H2.548zm8.137 17.418v7.868c0 .237-.19.429-.425.429H2.123a.427.427 0 0 1-.424-.429V2.143c0-.237.19-.429.424-.429h6.724c.14 0 .272.07.35.188l6.295 9.346 6.258-9.345a.424.424 0 0 1 .352-.189h6.723c.235 0 .425.192.425.429v25.714c0 .237-.19.429-.425.429H20.69a.427.427 0 0 1-.425-.429v-7.86l-4.42 6.559a.422.422 0 0 1-.701.001l-4.458-6.568z"/>
        <ellipse cx="8.918" cy="2.143" rx="1.274" ry="1.286"/>
        <ellipse cx="15.5" cy="11.786" rx="1" ry="1"/>
        <ellipse cx="22.082" cy="2.143" rx="1" ry="1"/>
        <ellipse cx="10.192" cy="18.429" rx="1" ry="1"/>
        <ellipse cx="2.123" cy="12.857" rx="1.274" ry="1.286"/>
        <ellipse cx="28.877" cy="15.429" rx="1.274" ry="1.286"/>
        <ellipse cx="2.123" cy="27.857" rx="1" ry="1"/>
        <ellipse cx="15.5" cy="26.357" rx="1" ry="1"/>
        <ellipse cx="9.979" cy="27.643" rx="1.486" ry="1.5"/>
        <ellipse cx="28.877" cy="2.143" rx="2.123" ry="2.143"/>
        <ellipse cx="2.123" cy="2.143" rx="2.123" ry="2.143"/>
        <ellipse cx="2.123" cy="27.857" rx="2.123" ry="2.143"/>
        <ellipse cx="28.877" cy="27.857" rx="2.123" ry="2.143"/>
        <ellipse cx="20.808" cy="18.857" rx="2.123" ry="2.143"/>
        <path fill-rule="nonzero" d="M28.95 15.31l-.38.192-6.56-13.24.38-.192z"/>
        <path fill-rule="nonzero" d="M28.765 15.357l.182.388-8.452 4.04-.182-.387z"/>
        <path fill-rule="nonzero" d="M28.963 28.102l-.328.271-7.913-9.76.328-.272zM15.795 11.73l-.24.354-13.94-9.672.241-.353zM10.264 27.739l-.38.191-7.833-15.812.38-.191z"/>
        <path fill-rule="nonzero" d="M15.47 11.484l.329.27-5.789 7.19-.33-.27z"/>
    </g>
</svg>
