<svg xmlns="http://www.w3.org/2000/svg" width="274" height="70" viewBox="0 0 274 70">
    <g fill="none" fill-rule="evenodd">
        <path fill="#FFF" d="M100.606 21.652h9.944V51h-9.944V21.652zm5.544 25.828V25.172h-1.144V47.48h1.144zm6.82-11.132c0-2.112.403-4.107 1.21-5.984a15.536 15.536 0 0 1 3.3-4.906 15.536 15.536 0 0 1 4.906-3.3c1.877-.807 3.872-1.21 5.984-1.21s4.107.403 5.984 1.21a15.536 15.536 0 0 1 4.906 3.3 15.536 15.536 0 0 1 3.3 4.906c.807 1.877 1.21 3.872 1.21 5.984s-.403 4.107-1.21 5.984a15.536 15.536 0 0 1-3.3 4.906 15.536 15.536 0 0 1-4.906 3.3c-1.877.807-3.872 1.21-5.984 1.21s-4.107-.403-5.984-1.21a15.536 15.536 0 0 1-4.906-3.3 15.536 15.536 0 0 1-3.3-4.906c-.807-1.877-1.21-3.872-1.21-5.984zm4.136 0c0 1.555.293 3.014.88 4.378a11.376 11.376 0 0 0 2.42 3.586 11.376 11.376 0 0 0 3.586 2.42c1.364.587 2.823.88 4.378.88 1.555 0 3.014-.293 4.378-.88a11.376 11.376 0 0 0 3.586-2.42 11.376 11.376 0 0 0 2.42-3.586c.587-1.364.88-2.823.88-4.378 0-1.555-.293-3.014-.88-4.378a11.376 11.376 0 0 0-2.42-3.586 11.376 11.376 0 0 0-3.586-2.42c-1.364-.587-2.823-.88-4.378-.88-1.555 0-3.014.293-4.378.88a11.376 11.376 0 0 0-3.586 2.42 11.376 11.376 0 0 0-2.42 3.586c-.587 1.364-.88 2.823-.88 4.378zm5.104 0c0 .85.161 1.65.484 2.398.323.748.763 1.4 1.32 1.958.557.557 1.21.997 1.958 1.32a5.989 5.989 0 0 0 2.398.484c.85 0 1.65-.161 2.398-.484a6.228 6.228 0 0 0 1.958-1.32 6.228 6.228 0 0 0 1.32-1.958 5.989 5.989 0 0 0 .484-2.398c0-.85-.161-1.65-.484-2.398a6.228 6.228 0 0 0-1.32-1.958 6.228 6.228 0 0 0-1.958-1.32 5.989 5.989 0 0 0-2.398-.484c-.85 0-1.65.161-2.398.484-.748.323-1.4.763-1.958 1.32a6.228 6.228 0 0 0-1.32 1.958 5.989 5.989 0 0 0-.484 2.398zm6.16 10.12c-1.408 0-2.72-.264-3.938-.792a10.288 10.288 0 0 1-5.39-5.39c-.528-1.217-.792-2.53-.792-3.938 0-1.408.264-2.72.792-3.938a10.288 10.288 0 0 1 5.39-5.39c1.217-.528 2.53-.792 3.938-.792 1.408 0 2.72.264 3.938.792a10.288 10.288 0 0 1 5.39 5.39c.528 1.217.792 2.53.792 3.938 0 1.408-.264 2.72-.792 3.938a10.288 10.288 0 0 1-5.39 5.39c-1.217.528-2.53.792-3.938.792zm21.692-17.116h-5.412v-7.7h20.504v7.7h-5.412V51h-9.68V29.352zm5.412 18.128V26.228h6.292v-1.056h-13.728v1.056h6.292V47.48h1.144zm20.02-25.828h7.744l7.656 11.264 7.612-11.264h7.744V51h-9.372V40.44l-5.984 8.8-6.028-8.8V51h-9.372V21.652zm5.544 25.828V27.284l9.856 14.344 9.812-14.344V47.48h1.144V25.172h-1.144l-9.812 14.476-9.856-14.476h-1.144V47.48h1.144zm28.292-25.828h17.292v7.7h-7.92v3.256h7.788v7.304h-7.788V43.3h8.228V51h-17.6V21.652zm14.344 25.828v-1.056h-8.8v-9.636h8.36v-1.056h-8.36v-9.504h8.8v-1.056h-9.944V47.48h9.944zm8.8-.308c.41.088.85.161 1.32.22.41.059.843.11 1.298.154.455.044.917.066 1.386.066.821 0 1.62-.095 2.398-.286a6.028 6.028 0 0 0 2.09-.946 4.844 4.844 0 0 0 1.474-1.694c.367-.69.55-1.533.55-2.53 0-.85-.213-1.657-.638-2.42a11.204 11.204 0 0 0-1.628-2.2 27.646 27.646 0 0 0-2.112-2.024 39.175 39.175 0 0 1-2.112-1.958c-.66-.66-1.203-1.32-1.628-1.98-.425-.66-.638-1.342-.638-2.046 0-1.056.337-1.87 1.012-2.442.675-.572 1.76-.858 3.256-.858a12.37 12.37 0 0 1 1.452.088c.235.03.47.044.704.044v-1.144c-.205 0-.425-.015-.66-.044a8.293 8.293 0 0 0-.682-.066c-.25-.015-.506-.022-.77-.022-1.584 0-2.89.36-3.916 1.078-1.027.719-1.54 1.84-1.54 3.366 0 .821.213 1.591.638 2.31.425.719.968 1.423 1.628 2.112a30.54 30.54 0 0 0 2.112 2.002 39.175 39.175 0 0 1 2.112 1.958c.66.66 1.203 1.342 1.628 2.046.425.704.638 1.437.638 2.2 0 1.408-.477 2.479-1.43 3.212-.953.733-2.266 1.1-3.938 1.1a15.57 15.57 0 0 1-2.728-.22c-.44-.059-.865-.132-1.276-.22v1.144zm-3.696-5.28c.645.205 1.32.367 2.024.484.587.147 1.254.264 2.002.352.748.088 1.503.132 2.266.132 1.35 0 2.024-.499 2.024-1.496 0-.381-.205-.77-.616-1.166-.41-.396-.931-.836-1.562-1.32a86.374 86.374 0 0 1-2.024-1.606 14.661 14.661 0 0 1-2.024-2.024 10.581 10.581 0 0 1-1.562-2.574c-.41-.953-.616-2.046-.616-3.278 0-1.379.25-2.596.748-3.652a7.344 7.344 0 0 1 2.068-2.64c.88-.704 1.914-1.24 3.102-1.606a12.838 12.838 0 0 1 3.806-.55c.704 0 1.408.037 2.112.11l1.892.198c.645.088 1.276.176 1.892.264v8.228c-.235-.03-.499-.059-.792-.088-.235-.03-.499-.059-.792-.088a9.293 9.293 0 0 0-.924-.044c-.176 0-.396.007-.66.022a3.993 3.993 0 0 0-.748.11c-.235.059-.44.161-.616.308s-.264.352-.264.616c0 .235.198.528.594.88.396.352.88.763 1.452 1.232.572.47 1.203 1.012 1.892 1.628.69.616 1.32 1.32 1.892 2.112a12.334 12.334 0 0 1 1.452 2.684c.396.997.594 2.112.594 3.344 0 1.29-.205 2.5-.616 3.63a7.712 7.712 0 0 1-1.914 2.948c-.865.836-1.973 1.496-3.322 1.98-1.35.484-2.948.726-4.796.726a29.067 29.067 0 0 1-5.632-.528 21.249 21.249 0 0 1-2.332-.528v-8.8zm20.592-20.24h9.372v9.988h5.236v-9.988h9.416V51h-9.416V40.132h-5.236V51h-9.372V21.652zm5.544 25.828V36.348h12.936V47.48h1.144V25.172h-1.144v10.12h-12.936v-10.12h-1.144V47.48h1.144z"/>
        <path stroke="#FFF" stroke-linecap="round" stroke-linejoin="round" stroke-width="2" d="M5 5h15.832l15.652 23.028L52.046 5H67.88v60h-19.16V43.41L36.483 61.403 24.16 43.41V65H5z"/>
        <path stroke="#FFF" stroke-linecap="square" d="M67.5 35.5l-15-30M67.5 36.5l-19 9M67.5 65.5l-18-22M36.5 27.5l-32-22M23.5 64.5l-18-36M36.5 27.5l-13 16"/>
        <circle cx="21" cy="5" r="3" fill="#FFF"/>
        <circle cx="36.5" cy="27.5" r="1.5" fill="#FFF"/>
        <circle cx="52" cy="5" r="2" fill="#FFF"/>
        <circle cx="24" cy="43" r="2" fill="#FFF"/>
        <circle cx="5" cy="30" r="3" fill="#FFF"/>
        <circle cx="68" cy="36" r="3" fill="#FFF"/>
        <circle cx="5" cy="65" r="1" fill="#FFF"/>
        <circle cx="36.5" cy="61.5" r="1.5" fill="#FFF"/>
        <circle cx="23.5" cy="64.5" r="3.5" fill="#FFF"/>
        <circle cx="68" cy="5" r="5" fill="#FFF"/>
        <circle cx="5" cy="5" r="5" fill="#FFF"/>
        <circle cx="5" cy="65" r="5" fill="#FFF"/>
        <circle cx="68" cy="65" r="5" fill="#FFF"/>
        <circle cx="49" cy="44" r="5" fill="#FFF"/>
    </g>
</svg>
